HIERARCHY
ROOT joint_Root
{
	OFFSET 0.0 0.0 0.0
	CHANNELS 6 Xposition Yposition Zposition Zrotation Xrotation Yrotation 
	JOINT Hips
	{
		OFFSET -17.1583 93.1646 452.98
		CHANNELS 6 Xposition Yposition Zposition Zrotation Xrotation Yrotation 
		JOINT Spine
		{
			OFFSET 15.7357 0.0 0.0
			CHANNELS 6 Xposition Yposition Zposition Zrotation Xrotation Yrotation 
			JOINT Chest
			{
				OFFSET 8.98455 -0.406207 0.0
				CHANNELS 6 Xposition Yposition Zposition Zrotation Xrotation Yrotation 
				JOINT Neck
				{
					OFFSET 16.3773 0.0 0.0
					CHANNELS 6 Xposition Yposition Zposition Zrotation Xrotation Yrotation 
					JOINT Head
					{
						OFFSET 6.45672 0.0 0.0
						CHANNELS 6 Xposition Yposition Zposition Zrotation Xrotation Yrotation 
						End Site
						{
							OFFSET 0.0 0.0 0.0
						}
					}
				}
				JOINT Shoulder_L
				{
					OFFSET 12.9942 -0.242716 4.98039
					CHANNELS 6 Xposition Yposition Zposition Zrotation Xrotation Yrotation 
					JOINT UpperArm_L
					{
						OFFSET 5.34809 0.0 0.0
						CHANNELS 6 Xposition Yposition Zposition Zrotation Xrotation Yrotation 
						JOINT LowerArm_L
						{
							OFFSET 24.3286 1.87007e-05 0.0
							CHANNELS 6 Xposition Yposition Zposition Zrotation Xrotation Yrotation 
							JOINT Hand_L
							{
								OFFSET 22.2916 0.0 0.0
								CHANNELS 6 Xposition Yposition Zposition Zrotation Xrotation Yrotation 
								End Site
								{
									OFFSET 0.0 0.0 0.0
								}
							}
						}
					}
				}
				JOINT Shoulder_R
				{
					OFFSET 12.9945 -0.242716 -4.98039
					CHANNELS 6 Xposition Yposition Zposition Zrotation Xrotation Yrotation 
					JOINT UpperArm_R
					{
						OFFSET -5.34813 0.0 0.0
						CHANNELS 6 Xposition Yposition Zposition Zrotation Xrotation Yrotation 
						JOINT LowerArm_R
						{
							OFFSET -24.3289 0.000322201 0.0
							CHANNELS 6 Xposition Yposition Zposition Zrotation Xrotation Yrotation 
							JOINT Hand_R
							{
								OFFSET -22.2915 -0.000108084 0.0
								CHANNELS 6 Xposition Yposition Zposition Zrotation Xrotation Yrotation 
								End Site
								{
									OFFSET 0.0 0.0 0.0
								}
							}
						}
					}
				}
			}
		}
		JOINT UpperLeg_L
		{
			OFFSET -2.19248 -6.46944 0.0
			CHANNELS 6 Xposition Yposition Zposition Zrotation Xrotation Yrotation 
			JOINT LowerLeg_L
			{
				OFFSET 39.0811 0.0 -1.23785e-05
				CHANNELS 6 Xposition Yposition Zposition Zrotation Xrotation Yrotation 
				JOINT Foot_L
				{
					OFFSET 40.9854 0.0 -1.26872e-05
					CHANNELS 6 Xposition Yposition Zposition Zrotation Xrotation Yrotation 
					JOINT Toes_L
					{
						OFFSET 11.7543 0.0 0.0
						CHANNELS 6 Xposition Yposition Zposition Zrotation Xrotation Yrotation 
						End Site
						{
							OFFSET 0.0 0.0 0.0
						}
					}
				}
			}
		}
		JOINT UpperLeg_R
		{
			OFFSET -2.19251 6.46944 0.0
			CHANNELS 6 Xposition Yposition Zposition Zrotation Xrotation Yrotation 
			JOINT LowerLeg_R
			{
				OFFSET -39.0811 -0.00228153 -0.0401928
				CHANNELS 6 Xposition Yposition Zposition Zrotation Xrotation Yrotation 
				JOINT Foot_R
				{
					OFFSET -40.9854 0.0 0.0
					CHANNELS 6 Xposition Yposition Zposition Zrotation Xrotation Yrotation 
					JOINT Toes_R
					{
						OFFSET -11.7543 0.0 0.0
						CHANNELS 6 Xposition Yposition Zposition Zrotation Xrotation Yrotation 
						End Site
						{
							OFFSET 0.0 0.0 0.0
						}
					}
				}
			}
		}
	}
}
MOTION
Frames:	4
Frame Time:	0.0333333
0.000000 0.000000 0.000000 0.000000 0.000000 -0.000000 -4.598680 92.083700 -1.122450 83.065300 -2.615480 0.457985 15.735700 0.000005 -0.000001 57.687100 87.618500 -54.168100 8.984550 -0.406207 -0.000000 -3.644160 -2.894640 6.949640 16.377300 -0.000001 -0.000001 9.070310 3.848440 6.504190 6.456720 -0.000001 -0.000000 7.094130 9.411030 14.889100 12.994200 -0.242716 4.980390 -91.874400 5.816970 -72.105200 5.348090 -0.000007 -0.000001 -75.937600 33.102200 2.453520 24.328600 0.000019 0.000005 12.790900 27.190400 -26.419500 22.291600 -0.000001 0.000005 -3.181190 4.949120 8.383120 12.994500 -0.242716 -4.980390 87.704200 6.024790 -69.094900 -5.348130 -0.000001 -0.000004 -66.866300 6.720690 -9.715350 -24.328900 0.000322 -0.000009 21.515800 -24.409300 -136.349000 -22.291500 -0.000108 -0.000004 55.753300 5.662220 -16.321700 -2.192480 -6.469440 -0.000000 -170.778000 6.188600 -7.131780 39.081100 -0.000007 -0.000012 0.347727 -0.650861 28.114400 40.985400 -0.000006 -0.000013 -2.699330 0.594307 -76.305100 11.754300 -0.000000 0.000003 0.001014 0.148332 -10.561300 -2.192510 6.469440 -0.000001 -168.201000 5.254950 -179.450000 -39.081100 -0.002282 -0.040193 0.048766 -0.185883 13.735000 -40.985400 0.000008 0.000006 3.264190 3.004570 -69.155200 -11.754300 -0.000006 -0.000006 -0.010564 0.275474 -5.380430
0.000000 0.000000 0.000000 0.000000 0.000000 -0.000000 -4.593200 92.073800 -1.072110 83.078300 -2.546080 0.421314 15.735700 0.000005 -0.000001 57.471300 87.622200 -53.975400 8.984550 -0.406207 -0.000000 -3.660500 -2.903950 6.902600 16.377300 -0.000001 -0.000001 9.069460 3.834750 6.466620 6.456720 -0.000001 -0.000000 7.064830 9.361450 14.862300 12.994200 -0.242716 4.980390 -91.880200 5.817860 -72.055400 5.348090 -0.000007 -0.000001 -75.957400 33.089800 2.471410 24.328600 0.000019 0.000005 12.742200 27.153100 -26.358600 22.291600 -0.000001 0.000005 -3.051100 4.945980 8.447740 12.994500 -0.242716 -4.980390 87.705400 6.025080 -69.105500 -5.348130 -0.000001 -0.000004 -66.910500 6.539960 -9.762970 -24.328900 0.000322 -0.000009 21.657800 -24.460000 -136.197000 -22.291500 -0.000108 -0.000004 55.812400 5.660170 -16.079000 -2.192480 -6.469440 -0.000000 -170.796000 6.231920 -7.163020 39.081100 -0.000007 -0.000012 0.351789 -0.657777 28.139300 40.985400 -0.000006 -0.000013 -2.687800 0.588012 -76.338800 11.754300 -0.000000 0.000003 0.001017 0.148265 -10.564000 -2.192510 6.469440 -0.000001 -168.206000 5.362950 -179.471000 -39.081100 -0.002282 -0.040193 0.050586 -0.193120 13.749400 -40.985400 0.000008 0.000006 3.351930 3.002560 -69.215300 -11.754300 -0.000006 -0.000006 -0.010598 0.275719 -5.370430
0.000000 0.000000 0.000000 0.000000 0.000000 -0.000000 -4.592220 92.081400 -1.014330 83.070400 -2.506620 0.387966 15.735700 0.000005 -0.000001 57.635300 87.636700 -54.161200 8.984550 -0.406207 -0.000000 -3.679130 -2.875390 6.859600 16.377300 -0.000001 -0.000001 9.044320 3.811290 6.481340 6.456720 -0.000001 -0.000000 7.085910 9.313580 14.822700 12.994200 -0.242716 4.980390 -91.870000 5.799810 -72.094700 5.348090 -0.000007 -0.000001 -75.981500 32.988300 2.526590 24.328600 0.000019 0.000005 12.766200 27.204900 -26.362800 22.291600 -0.000001 0.000005 -3.110690 4.951760 8.328950 12.994500 -0.242716 -4.980390 87.702100 6.039850 -69.124600 -5.348130 -0.000001 -0.000004 -66.928900 6.252650 -9.749230 -24.328900 0.000322 -0.000009 21.506100 -24.273900 -136.214000 -22.291500 -0.000108 -0.000004 55.734600 5.660430 -16.109800 -2.192480 -6.469440 -0.000000 -170.767000 6.205980 -7.136740 39.081100 -0.000007 -0.000012 0.341399 -0.639919 28.080800 40.985400 -0.000006 -0.000013 -2.788780 0.695191 -76.304900 11.754300 -0.000000 0.000003 0.001015 0.148316 -10.561900 -2.192510 6.469440 -0.000001 -168.237000 5.408350 -179.435000 -39.081100 -0.002282 -0.040193 0.046780 -0.178538 13.677100 -40.985400 0.000008 0.000006 3.101810 3.068680 -69.129000 -11.754300 -0.000006 -0.000006 -0.010317 0.273660 -5.454660
0.000000 0.000000 0.000000 0.000000 0.000000 -0.000000 -4.576690 92.076400 -0.978181 83.072800 -2.447570 0.296760 15.735700 0.000005 -0.000001 57.531500 87.658600 -54.085500 8.984550 -0.406207 -0.000000 -3.722140 -2.857530 6.802860 16.377300 -0.000001 -0.000001 9.003320 3.760860 6.485190 6.456720 -0.000001 -0.000000 7.069400 9.251480 14.778900 12.994200 -0.242716 4.980390 -91.869200 5.788360 -72.069000 5.348090 -0.000007 -0.000001 -75.949300 32.922700 2.518450 24.328600 0.000019 0.000005 12.752100 27.162000 -26.369900 22.291600 -0.000001 0.000005 -3.151690 4.949770 8.369860 12.994500 -0.242716 -4.980390 87.704700 6.026620 -69.104900 -5.348130 -0.000001 -0.000004 -67.025000 5.939690 -9.797410 -24.328900 0.000322 -0.000009 21.619600 -24.333700 -136.114000 -22.291500 -0.000108 -0.000004 55.819500 5.657990 -15.834000 -2.192480 -6.469440 -0.000000 -170.784000 6.231310 -7.228850 39.081100 -0.000007 -0.000012 0.350063 -0.655846 28.092200 40.985400 -0.000006 -0.000013 -2.688780 0.665185 -76.342800 11.754300 -0.000000 0.000003 0.000853 0.151764 -10.422000 -2.192510 6.469440 -0.000001 -168.237000 5.475140 -179.508000 -39.081100 -0.002282 -0.040193 0.048155 -0.184313 13.668300 -40.985400 0.000008 0.000006 3.221340 3.093700 -69.192300 -11.754300 -0.000006 -0.000006 -0.010835 0.277442 -5.299920
